<?xml version="1.0" standalone="no"?>
<!DOCTYPE svg PUBLIC "-//W3C//DTD SVG 20010904//EN"
 "http://www.w3.org/TR/2001/REC-SVG-20010904/DTD/svg10.dtd">
<svg version="1.0" xmlns="http://www.w3.org/2000/svg"
 width="800.000000pt" height="800.000000pt" viewBox="0 0 800.000000 800.000000"
 preserveAspectRatio="xMidYMid meet">

<g transform="translate(0.000000,800.000000) scale(0.100000,-0.100000)"
fill="#000000" stroke="none">
<path d="M0 4000 l0 -4000 4000 0 4000 0 0 4000 0 4000 -4000 0 -4000 0 0
-4000z m1650 3208 c26 -63 27 -68 9 -68 -10 0 -16 5 -14 13 9 23 -11 39 -46
35 -26 -2 -35 -8 -37 -25 -2 -13 -10 -23 -18 -23 -17 0 -17 4 -4 28 6 9 19 39
30 65 27 64 44 59 80 -25z m261 17 c17 -30 35 -55 41 -55 5 0 7 23 5 55 -3 37
-1 55 7 55 7 0 10 -23 8 -70 -5 -92 -22 -91 -72 4 -14 25 -29 46 -34 46 -4 0
-6 -27 -4 -60 2 -33 1 -60 -4 -60 -4 0 -8 32 -8 70 0 88 17 93 61 15z m339 30
c25 -23 26 -67 1 -89 -11 -10 -37 -20 -59 -23 l-40 -5 -4 72 -3 72 43 -5 c24
-2 52 -13 62 -22z m287 10 c2 -7 -12 -9 -37 -7 -35 4 -40 2 -40 -17 0 -16 6
-21 25 -21 14 0 25 -4 25 -10 0 -5 -11 -10 -25 -10 -19 0 -25 -5 -25 -21 0
-19 5 -21 40 -17 25 2 39 0 37 -7 -2 -5 -25 -11 -50 -13 l-47 -3 0 71 0 71 47
-3 c25 -2 48 -8 50 -13z m247 -47 l35 -63 1 63 c0 36 4 62 10 62 7 0 10 -25 8
-67 -4 -87 -19 -89 -67 -8 l-36 60 -3 -62 c-2 -36 -8 -63 -14 -63 -5 0 -7 7
-4 16 3 9 6 40 6 70 0 73 19 71 64 -8z m329 49 c4 -10 -6 -13 -36 -13 -32 1
-42 -3 -45 -16 -3 -14 3 -18 27 -18 17 0 31 -4 31 -10 0 -5 -14 -10 -31 -10
-24 0 -30 -4 -27 -17 4 -22 67 -31 80 -11 7 9 8 8 6 -7 -3 -16 -12 -21 -53
-23 l-50 -3 0 71 0 70 46 0 c30 0 49 -5 52 -13z m268 3 c10 -6 19 -18 19 -27
0 -14 -2 -14 -19 1 -21 19 -72 19 -78 -1 -2 -6 18 -18 46 -28 38 -12 51 -22
51 -36 0 -44 -93 -50 -109 -6 -12 31 -4 35 15 8 12 -16 24 -21 47 -19 44 4 38
20 -14 39 -48 18 -62 45 -33 66 21 16 48 17 75 3z m499 -15 c25 -22 26 -67 2
-88 -10 -9 -36 -19 -59 -23 l-41 -6 -4 72 -3 72 43 -5 c24 -2 52 -13 62 -22z
m287 10 c2 -6 -16 -10 -39 -10 -33 0 -43 -4 -46 -17 -3 -14 3 -18 27 -18 17 0
31 -4 31 -10 0 -5 -14 -10 -31 -10 -24 0 -30 -4 -27 -17 3 -14 13 -18 46 -18
56 0 48 -19 -10 -23 l-46 -3 -4 71 -3 71 49 -3 c27 -2 51 -7 53 -13z m193 -45
l0 -60 33 0 c18 0 39 6 46 13 10 10 12 8 9 -8 -3 -17 -12 -21 -56 -23 l-52 -3
0 70 c0 41 4 71 10 71 6 0 10 -27 10 -60z m577 45 c2 -6 -9 -11 -24 -10 -26 0
-27 -1 -24 -59 2 -42 -1 -57 -10 -54 -7 2 -12 25 -13 59 -1 52 -2 54 -28 54
-28 -1 -34 5 -21 19 11 11 116 2 120 -9z m188 -55 c0 -91 -12 -91 -17 0 -2 42
1 70 7 70 6 0 10 -30 10 -70z m275 57 c0 -9 -12 -11 -40 -9 -35 4 -40 2 -40
-17 0 -17 6 -21 30 -21 17 0 30 -4 30 -10 0 -5 -13 -10 -30 -10 -23 0 -30 -4
-30 -20 0 -16 7 -20 33 -20 18 0 38 5 45 12 13 13 15 8 6 -16 -4 -12 -20 -16
-55 -16 l-49 0 0 70 0 70 50 0 c34 0 50 -4 50 -13z m234 -47 c12 -30 26 -54
32 -53 5 0 18 25 29 54 12 30 28 55 37 57 14 3 17 -9 20 -67 2 -42 -1 -70 -6
-68 -6 2 -9 30 -7 63 3 68 -7 65 -37 -11 -26 -68 -49 -67 -77 2 -30 75 -38 76
-33 5 2 -34 0 -61 -5 -59 -4 1 -8 6 -8 10 1 4 1 34 1 68 0 50 3 60 16 57 9 -2
26 -28 38 -58z m396 40 c31 -31 11 -60 -40 -60 -38 0 -40 -2 -40 -30 0 -16 -4
-30 -9 -30 -5 0 -11 32 -13 70 l-3 70 43 0 c29 0 48 -6 62 -20z m284 -1 c17
-13 26 -30 26 -49 0 -32 -39 -70 -72 -70 -25 0 -68 44 -68 70 0 26 43 70 68
70 11 0 31 -9 46 -21z m-3972 -1094 c178 -259 315 -448 368 -507 28 -31 90
-86 139 -122 49 -36 99 -81 111 -102 27 -43 37 -122 21 -153 -11 -20 10 -55
207 -359 220 -338 517 -797 604 -935 l47 -74 80 1 80 1 308 465 c400 603 358
529 337 587 -35 98 -11 137 151 248 102 69 142 113 268 289 85 119 117 154
117 127 0 -6 -35 -70 -78 -143 -120 -205 -150 -278 -172 -432 -10 -67 -20 -96
-38 -118 -33 -39 -73 -58 -124 -58 -43 -1 -43 -1 -91 -78 -26 -42 -172 -273
-325 -512 l-279 -435 26 -39 c22 -33 26 -51 26 -111 0 -61 -4 -77 -28 -113
-53 -81 -145 -117 -237 -92 -61 16 -132 90 -148 152 -16 64 1 140 44 188 11
14 8 24 -24 70 -58 84 -415 630 -640 976 l-202 311 -41 6 c-46 6 -99 43 -127
89 -11 18 -32 84 -46 146 -14 63 -41 145 -60 185 -31 65 -326 564 -382 646
-22 32 -23 56 -4 49 5 -2 55 -71 112 -153z m1300 -2767 c-7 -7 -12 -16 -12
-20 0 -4 137 -8 305 -8 303 0 306 0 295 20 -10 18 -8 20 22 20 22 0 37 -7 46
-20 9 -16 23 -20 61 -20 28 0 53 -4 56 -10 4 -6 -12 -10 -39 -10 -51 0 -54 -5
-27 -37 15 -18 31 -23 81 -25 83 -4 94 -26 15 -30 l-55 -3 22 -32 c22 -31 26
-33 89 -33 53 0 69 -4 84 -20 17 -19 16 -19 -49 -22 l-66 -3 35 -52 36 -53 84
0 c79 0 85 -1 105 -27 l22 -28 -82 -3 c-45 -2 -80 -6 -78 -10 2 -4 27 -42 57
-85 l55 -77 100 0 100 0 38 -37 c21 -20 38 -40 38 -45 0 -4 -47 -9 -104 -10
l-104 -3 99 -142 100 -143 138 0 139 0 71 -79 c39 -43 71 -81 71 -85 0 -3 -65
-6 -145 -6 -80 0 -145 -3 -145 -6 0 -7 263 -383 312 -446 33 -43 107 -80 193
-98 33 -7 64 -17 70 -22 5 -4 -139 -8 -320 -8 -181 0 -325 4 -320 8 6 5 31 17
58 26 54 20 71 43 58 78 -10 25 -247 435 -263 456 -8 9 -208 12 -960 10 l-949
-3 -134 -230 c-74 -126 -134 -239 -135 -251 0 -28 25 -49 78 -66 23 -7 42 -16
42 -20 0 -5 -147 -8 -327 -8 -179 0 -324 2 -321 5 2 3 39 14 81 24 90 24 143
49 179 88 14 15 94 125 177 243 l150 215 -149 5 -150 5 67 77 68 77 140 0 141
1 102 144 c56 79 102 147 102 150 0 3 -48 6 -106 6 l-105 0 36 45 37 44 106 3
106 3 57 80 58 80 -80 3 c-43 2 -79 6 -79 9 0 4 7 15 17 25 13 15 31 18 98 18
l83 0 36 53 c20 29 36 56 36 60 0 4 -30 7 -66 7 -58 0 -65 2 -54 15 9 11 32
15 81 15 65 0 69 1 93 33 15 19 26 37 26 40 0 4 -23 7 -51 7 -76 0 -59 24 19
28 50 2 64 7 77 25 23 32 19 37 -31 37 -27 0 -43 4 -39 10 3 6 31 10 60 10 44
0 56 4 65 20 8 14 21 20 47 20 29 0 34 -3 25 -12z m-1386 -2801 c1 -12 9 -40
19 -62 l17 -40 24 53 c13 30 22 58 19 63 -4 5 3 9 14 9 17 0 19 -3 11 -17 -5
-10 -19 -39 -30 -65 -28 -70 -50 -65 -82 17 -23 57 -24 65 -10 65 11 0 18 -9
18 -23z m299 -42 c0 -37 -4 -65 -10 -65 -6 0 -10 28 -10 65 0 37 4 65 10 65 6
0 10 -28 10 -65z m286 46 c13 -11 21 -23 16 -27 -4 -4 -13 1 -20 10 -26 36
-97 16 -97 -27 0 -46 62 -75 90 -42 7 8 17 15 22 15 17 0 -14 -31 -40 -41 -16
-6 -32 -4 -51 6 -46 23 -53 57 -20 99 25 31 66 34 100 7z m282 7 c3 -10 -7
-12 -39 -9 -39 3 -44 1 -44 -18 0 -17 6 -21 30 -21 17 0 30 -4 30 -10 0 -5
-14 -10 -31 -10 -24 0 -30 -4 -27 -17 4 -22 67 -31 79 -11 7 10 9 9 9 -4 0
-15 -9 -18 -52 -18 l-53 0 0 65 0 65 46 0 c28 0 49 -5 52 -12z m237 -30 c48
-89 52 -90 48 -20 -2 37 1 62 7 62 6 0 10 -28 10 -65 0 -85 -20 -88 -67 -7
l-33 57 -3 -57 c-4 -79 -22 -73 -22 7 0 56 2 65 18 65 11 0 28 -17 42 -42z
m363 29 c4 -10 -3 -12 -24 -9 l-29 4 0 -56 c0 -31 -4 -56 -10 -56 -5 0 -10 24
-10 54 0 60 -9 73 -40 56 -16 -9 -20 -8 -20 5 0 20 125 22 133 2z m267 0 c0
-9 -12 -11 -40 -9 -35 4 -40 2 -40 -17 0 -16 6 -21 25 -21 14 0 25 -4 25 -10
0 -5 -11 -10 -25 -10 -18 0 -25 -5 -25 -20 0 -16 7 -20 33 -20 18 0 39 6 46
13 10 10 11 9 6 -5 -6 -14 -19 -18 -56 -18 l-49 0 0 65 0 65 50 0 c34 0 50 -4
50 -13z m486 -52 c28 -71 28 -65 9 -65 -8 0 -14 3 -14 8 4 25 -4 32 -37 32
-27 0 -37 -5 -41 -20 -3 -11 -11 -20 -19 -20 -9 0 -5 18 14 65 35 84 53 84 88
0z m258 5 c12 -30 26 -53 32 -51 5 2 18 26 30 55 11 28 27 52 36 54 13 3 17
-9 20 -62 2 -40 -1 -66 -7 -66 -6 0 -9 23 -7 55 2 30 0 55 -5 55 -5 0 -17 -25
-28 -55 -14 -44 -23 -55 -40 -55 -16 0 -25 11 -39 50 -25 69 -36 71 -32 5 2
-36 0 -55 -8 -55 -7 0 -10 21 -8 66 5 82 24 84 56 4z m316 -5 c0 -37 -4 -65
-10 -65 -6 0 -10 28 -10 65 0 37 4 65 10 65 6 0 10 -28 10 -65z m285 45 c10
-11 15 -23 12 -27 -4 -4 -13 1 -20 11 -9 12 -23 17 -47 14 -27 -2 -37 -9 -44
-30 -17 -49 35 -84 85 -58 27 15 24 28 -8 33 -26 4 -26 4 5 6 36 1 43 -17 16
-43 -42 -42 -114 -10 -114 50 0 58 76 87 115 44z m293 0 c38 -36 22 -101 -28
-111 -54 -11 -104 46 -81 90 24 43 74 53 109 21z"/>
<path d="M1591 7241 c-15 -28 -14 -31 13 -31 19 0 23 4 19 20 -8 29 -20 33
-32 11z"/>
<path d="M2170 7210 c0 -49 1 -50 30 -50 20 0 35 8 46 25 15 23 15 27 0 50
-11 17 -26 25 -46 25 -29 0 -30 -1 -30 -50z"/>
<path d="M3797 7253 c-4 -3 -7 -24 -7 -45 0 -44 17 -56 59 -42 29 11 41 55 20
80 -12 14 -60 19 -72 7z"/>
<path d="M5950 7235 c0 -21 5 -25 29 -25 31 0 57 22 46 40 -3 5 -22 10 -41 10
-30 0 -34 -3 -34 -25z"/>
<path d="M6232 7248 c-17 -17 -15 -54 4 -72 18 -19 55 -21 72 -4 7 7 12 24 12
38 0 14 -5 31 -12 38 -7 7 -24 12 -38 12 -14 0 -31 -5 -38 -12z"/>
<path d="M3893 3760 c-44 -18 -42 -88 3 -109 40 -18 84 11 84 55 0 43 -45 71
-87 54z"/>
<path d="M3595 3320 l-16 -30 351 0 c192 0 350 3 350 8 0 4 -7 18 -16 30 -15
22 -16 22 -334 22 l-319 0 -16 -30z"/>
<path d="M3542 3228 c-12 -18 -19 -34 -18 -36 5 -4 809 -3 813 2 2 2 -4 17
-14 35 l-18 31 -372 0 -371 0 -20 -32z"/>
<path d="M3475 3109 c-15 -22 -29 -47 -32 -55 -4 -12 66 -14 492 -14 l497 0
-31 53 -30 52 -435 3 -436 2 -25 -41z"/>
<path d="M3387 2958 c-53 -87 -77 -130 -77 -138 0 -7 222 -10 626 -10 344 0
624 4 622 8 -1 5 -23 43 -47 85 l-45 77 -533 0 -533 0 -13 -22z"/>
<path d="M3163 2577 l-82 -142 846 -3 c466 -1 848 0 850 2 2 2 -33 67 -78 145
l-81 141 -687 0 -686 -1 -82 -142z"/>
<path d="M4420 592 c0 -6 -3 -17 -6 -26 -5 -12 0 -16 20 -16 22 0 24 3 17 22
-8 23 -31 37 -31 20z"/>
<path d="M5540 581 c-15 -29 -12 -46 10 -66 43 -39 107 13 75 61 -20 30 -69
33 -85 5z"/>
</g>
</svg>
